HIERARCHY
ROOT Hips
{
	OFFSET 0.000000 0.000000 0.000000
	CHANNELS 6 Xposition Yposition Zposition Zrotation Yrotation Xrotation 
	JOINT LHipJoint
	{
		OFFSET 0.000000 0.000000 0.000000
		CHANNELS 3 Zrotation Yrotation Xrotation
		JOINT LeftUpLeg
		{
			OFFSET 1.363060 -1.794630 0.839290
			CHANNELS 3 Zrotation Yrotation Xrotation
			JOINT LeftLeg
			{
				OFFSET 2.448110 -6.726130 0.000000
				CHANNELS 3 Zrotation Yrotation Xrotation
				JOINT LeftFoot
				{
					OFFSET 2.562200 -7.039590 0.000000
					CHANNELS 3 Zrotation Yrotation Xrotation
					JOINT LeftToeBase
					{
						OFFSET 0.157640 -0.433110 2.322550
						CHANNELS 3 Zrotation Yrotation Xrotation
						End Site
						{
							OFFSET 0.000000 0.000000 0.000000
						}
					}
				}
			}
		}
	}
	JOINT RHipJoint
	{
		OFFSET 0.000000 0.000000 0.000000
		CHANNELS 3 Zrotation Yrotation Xrotation
		JOINT RightUpLeg
		{
			OFFSET -1.305520 -1.794630 0.839290
			CHANNELS 3 Zrotation Yrotation Xrotation
			JOINT RightLeg
			{
				OFFSET -2.542530 -6.985550 0.000000
				CHANNELS 3 Zrotation Yrotation Xrotation
				JOINT RightFoot
				{
					OFFSET -2.568260 -7.056230 0.000000
					CHANNELS 3 Zrotation Yrotation Xrotation
					JOINT RightToeBase
					{
						OFFSET -0.164730 -0.452590 2.363150
						CHANNELS 3 Zrotation Yrotation Xrotation
						End Site
						{
							OFFSET 0.000000 0.000000 0.000000
						}
					}
				}
			}
		}
	}
	JOINT LowerBack
	{
		OFFSET 0.000000 0.000000 0.000000
		CHANNELS 3 Zrotation Yrotation Xrotation
		JOINT Spine
		{
			OFFSET 0.028270 2.035590 -0.193380
			CHANNELS 3 Zrotation Yrotation Xrotation
			JOINT Spine1
			{
				OFFSET 0.056720 2.048850 -0.042750
				CHANNELS 3 Zrotation Yrotation Xrotation
				JOINT Neck
				{
					OFFSET 0.000000 0.000000 0.000000
					CHANNELS 3 Zrotation Yrotation Xrotation
					JOINT Neck1
					{
						OFFSET -0.054170 1.746240 0.172020
						CHANNELS 3 Zrotation Yrotation Xrotation
						JOINT Head
						{
							OFFSET 0.104070 1.761360 -0.123970
							CHANNELS 3 Zrotation Yrotation Xrotation
							End Site
							{
								OFFSET 0.000000 0.000000 0.000000
							}
						}
					}
				}
				JOINT LeftShoulder
				{
					OFFSET 0.000000 0.000000 0.000000
					CHANNELS 3 Zrotation Yrotation Xrotation
					JOINT LeftArm
					{
						OFFSET 3.362410 1.200890 -0.311210
						CHANNELS 3 Zrotation Yrotation Xrotation
						JOINT LeftForeArm
						{
							OFFSET 4.983000 -0.000000 -0.000000
							CHANNELS 3 Zrotation Yrotation Xrotation
							JOINT LeftHand
							{
								OFFSET 3.483560 -0.000000 -0.000000
								CHANNELS 3 Zrotation Yrotation Xrotation
								JOINT LeftFingerBase
								{
									OFFSET 0.000000 0.000000 0.000000
									CHANNELS 3 Zrotation Yrotation Xrotation
									JOINT LeftHandIndex1
									{
										OFFSET 0.715260 -0.000000 -0.000000
										CHANNELS 3 Zrotation Yrotation Xrotation
										End Site
										{
											OFFSET 0.000000 0.000000 0.000000
										}
									}
								}
								JOINT LThumb
								{
									OFFSET 0.000000 0.000000 0.000000
									CHANNELS 3 Zrotation Yrotation Xrotation
									End Site
									{
										OFFSET 0.000000 0.000000 0.000000
									}
								}
							}
						}
					}
				}
				JOINT RightShoulder
				{
					OFFSET 0.000000 0.000000 0.000000
					CHANNELS 3 Zrotation Yrotation Xrotation
					JOINT RightArm
					{
						OFFSET -3.136600 1.374050 -0.404650
						CHANNELS 3 Zrotation Yrotation Xrotation
						JOINT RightForeArm
						{
							OFFSET -5.241900 -0.000000 -0.000000
							CHANNELS 3 Zrotation Yrotation Xrotation
							JOINT RightHand
							{
								OFFSET -3.444170 -0.000000 -0.000000
								CHANNELS 3 Zrotation Yrotation Xrotation
								JOINT RightFingerBase
								{
									OFFSET 0.000000 0.000000 0.000000
									CHANNELS 3 Zrotation Yrotation Xrotation
									JOINT RightHandIndex1
									{
										OFFSET -0.622530 -0.000000 -0.000000
										CHANNELS 3 Zrotation Yrotation Xrotation
										End Site
										{
											OFFSET 0.000000 0.000000 0.000000
										}
									}
								}
								JOINT RThumb
								{
									OFFSET 0.000000 0.000000 0.000000
									CHANNELS 3 Zrotation Yrotation Xrotation
									End Site
									{
										OFFSET 0.000000 0.000000 0.000000
									}
								}
							}
						}
					}
				}
			}
		}
	}
}
MOTION
Frames: 9
Frame Time: 0.008333
8.147809 17.393152 -37.780158 -4.606375 -9.129329 10.490609 -0.413584 -2.897061 -4.481468 -8.126420 2.185626 -37.280432 -2.964697 7.392660 14.322202 -4.283955 16.192002 12.633231 0.583400 -4.890800 -13.597500 1.311427 -1.250362 2.912457 23.492770 4.403207 0.163860 2.744611 -4.023136 14.176792 -1.765243 3.761865 3.919569 -0.959100 6.236000 -17.470700 2.488934 4.840659 -1.538825 0.725395 5.620904 -4.946510 4.234330 3.400626 6.647134 -10.190672 -5.485294 -18.163192 6.948340 -4.934247 7.035354 6.562300 -2.387900 11.102300 -0.931971 -5.745658 -1.040634 -85.512753 20.422091 27.120071 6.980702 -16.158075 -1.682921 -0.061815 1.113656 4.498649 9.005301 -20.316521 -3.370300 -7.125000 0.000000 0.000000 -12.357500 8.703900 10.601400 -0.205787 8.322679 1.193318 67.620608 6.680935 46.183801 -27.138792 32.714099 -10.886793 2.528253 2.485868 -23.598437 -31.002896 -21.015272 14.161000 7.125000 0.000000 0.000000 -6.055300 -55.608800 1.580800 
8.154584 17.388563 -37.532437 -4.754360 -9.406487 10.657202 -0.496706 -2.904147 -4.616905 -6.911604 0.782772 -36.595335 -3.163935 6.693179 12.231006 -4.953246 17.628859 12.033509 0.519100 -4.617700 -12.821400 1.292159 -1.381833 3.064522 23.392662 4.492362 1.306500 2.858339 -3.572836 13.093125 -1.678590 3.536473 4.450844 -1.351600 7.359600 -20.785200 2.521470 4.876270 -1.755170 0.746714 5.627313 -4.946049 4.388093 3.415295 6.734891 -10.373081 -5.543212 -18.165632 6.949735 -4.950908 6.970782 6.599800 -2.404500 11.047900 -0.929198 -5.700809 -1.031588 -85.977084 20.720249 23.982853 6.311724 -15.284584 -1.516636 -0.003706 1.225238 7.098983 8.870260 -21.167583 -3.463600 -7.125000 0.000000 0.000000 -12.446000 7.771500 10.916300 -0.215484 8.318530 1.223557 67.210336 7.272452 46.675060 -27.763731 33.172391 -11.261024 2.532722 2.468104 -24.103057 -31.619632 -20.709906 14.262900 7.125000 0.000000 0.000000 -6.798200 -55.341000 1.731600 
8.163653 17.385722 -37.281547 -5.218969 -9.625042 10.743661 -0.427101 -2.895661 -4.775119 -5.422469 -0.776097 -36.043629 -3.209589 6.352275 11.030712 -5.676733 19.008019 10.918526 0.306100 -3.557000 -9.833700 1.207614 -1.533445 3.234758 23.636843 4.099556 2.632254 3.008060 -2.901073 11.465237 -1.568432 3.305222 5.423633 -1.480900 7.688900 -21.772900 3.029650 4.997672 -1.859012 0.754520 5.735091 -4.940154 4.222125 3.512101 6.775422 -10.269932 -5.547985 -18.012761 6.962662 -5.010862 6.884412 6.589400 -2.418500 10.913500 -0.932457 -5.645994 -1.008210 -86.003992 21.177770 22.337526 5.898918 -14.730223 -1.408822 0.007764 1.286448 8.409551 8.891172 -21.569871 -3.549200 -7.125000 0.000000 0.000000 -12.422800 7.315500 11.008500 -0.224429 8.305457 1.252816 66.999251 7.782337 46.881326 -28.238608 33.538560 -11.570357 2.548482 2.465030 -24.531609 -32.275528 -20.608225 14.515100 7.125000 0.000000 0.000000 -7.576500 -55.321300 1.927800 
8.170975 17.373156 -37.031859 -5.678186 -9.875683 10.876348 -0.368473 -2.865454 -4.907254 -4.436241 -1.516596 -35.744857 -3.247900 5.948356 9.716496 -6.353825 20.482745 10.560243 0.348300 -3.791800 -10.491600 1.116956 -1.699184 3.399826 23.841347 4.075202 4.123989 3.136172 -2.272682 9.952374 -1.467196 3.082513 6.227096 -1.218500 7.001900 -19.720900 3.490036 5.148542 -1.868623 0.746419 5.893197 -4.962081 3.999658 3.636142 6.647260 -10.152479 -5.562276 -17.884169 7.017951 -5.072366 6.765436 6.610200 -2.427500 10.818500 -0.960099 -5.628740 -0.993178 -85.914859 21.477011 20.503759 5.417220 -14.011549 -1.273747 0.007265 1.297436 9.747387 8.913258 -21.118052 -3.504500 -7.125000 0.000000 0.000000 -12.383700 7.749800 10.864300 -0.239380 8.342486 1.261040 66.913261 8.200361 46.892985 -28.531145 33.709606 -11.708238 2.536483 2.371348 -24.324922 -31.989823 -19.954839 13.913800 7.125000 0.000000 0.000000 -7.251800 -54.447800 1.690200 
8.177968 17.363102 -36.784356 -5.873888 -10.125976 10.975859 -0.302846 -2.824868 -5.002985 -4.021944 -1.856635 -35.710839 -3.285272 5.708472 8.908782 -6.767323 21.362247 10.191380 0.502200 -4.542800 -12.609000 0.988298 -1.906481 3.596477 23.753235 3.939467 5.907404 3.260955 -1.511019 8.160396 -1.414172 3.035745 7.313242 -1.098600 6.660400 -18.713100 3.571668 5.239741 -1.836375 0.744835 5.994184 -4.994046 3.988279 3.714614 6.433823 -10.188917 -5.604478 -17.760485 7.103861 -5.114412 6.678844 6.674300 -2.440400 10.779200 -0.985722 -5.627602 -0.981360 -86.038317 21.662275 17.420837 4.770619 -13.056268 -1.119467 0.075462 1.356713 12.333442 8.663906 -21.223649 -3.433000 -7.125000 0.000000 0.000000 -12.538100 7.609600 11.042000 -0.257158 8.407807 1.265128 66.806999 8.510647 46.835779 -28.757295 33.841999 -11.868046 2.559633 2.389885 -24.008899 -32.249262 -20.390920 14.329300 7.125000 0.000000 0.000000 -7.531900 -55.018800 1.860900 
8.186819 17.341794 -36.529969 -6.008597 -10.361262 11.031284 -0.229774 -2.766280 -5.056025 -3.478953 -2.564661 -35.484727 -3.310231 5.579244 8.442130 -7.063605 21.815477 9.314863 0.430300 -4.209600 -11.667200 0.821169 -2.148088 3.777553 23.602017 3.713568 7.977655 3.393923 -0.519128 5.778561 -1.244063 2.523451 8.588333 -1.154400 6.821600 -19.188000 3.585264 5.342227 -1.903405 0.742540 6.103398 -4.994960 4.025755 3.790996 6.412722 -10.154028 -5.623184 -17.722089 7.135938 -5.148893 6.612915 6.669900 -2.445900 10.726500 -0.988769 -5.598925 -0.960006 -86.114323 21.831971 14.930077 4.259808 -12.311211 -1.003405 0.127614 1.400742 14.876072 8.630996 -21.256836 -3.439100 -7.125000 0.000000 0.000000 -12.546700 7.535000 11.068800 -0.264609 8.430678 1.268892 66.798724 8.840345 46.567479 -29.056497 34.043007 -12.075074 2.552647 2.413726 -23.868377 -32.264449 -20.759267 14.581400 7.125000 0.000000 0.000000 -7.517600 -55.474200 1.940700 
8.193703 17.314258 -36.266513 -6.233571 -10.666828 11.065839 -0.150846 -2.672259 -5.086155 -2.987824 -3.154703 -35.217095 -3.309363 5.512108 8.126684 -7.459279 22.518433 8.532887 0.394300 -4.031900 -11.166500 0.603433 -2.434256 3.943149 23.554933 3.470157 10.516808 3.526525 0.839723 2.441912 -0.883600 1.105809 11.063173 -1.368800 7.404600 -20.919600 3.702013 5.554382 -1.968284 0.726345 6.350542 -4.991207 4.064068 3.937248 6.406810 -10.255923 -5.738148 -17.680781 7.231661 -5.275892 6.537654 6.759400 -2.496700 10.710300 -1.022587 -5.566427 -0.932716 -86.081428 21.836030 12.345230 3.788685 -11.596297 -0.904277 0.209052 1.425109 17.360686 8.240271 -21.227764 -3.282600 -7.125000 0.000000 0.000000 -12.795400 7.566500 11.291800 -0.287792 8.460995 1.267634 66.869932 8.998733 45.958043 -29.326428 34.179018 -12.163759 2.485884 2.221786 -23.392133 -31.215673 -19.231754 13.029100 7.125000 0.000000 0.000000 -6.329000 -53.408700 1.313000 
8.202336 17.282350 -35.995407 -6.451344 -10.839688 10.876850 -0.152568 -2.612956 -5.073387 -2.518542 -3.867555 -34.780673 -3.269681 5.571921 8.179659 -7.915327 23.375114 7.893664 0.387800 -3.998700 -11.073000 0.490677 -2.534485 3.994556 23.577335 3.349911 11.572306 3.502280 0.867766 2.475250 -0.886729 1.188162 11.342587 -1.027500 6.448100 -18.090200 3.879226 5.703306 -1.857297 0.722800 6.537901 -4.970575 4.135878 4.029113 6.464251 -10.527728 -5.895705 -17.727920 7.372645 -5.404598 6.501514 6.944500 -2.557100 10.771300 -1.078588 -5.545509 -0.888069 -86.147200 21.553328 7.711256 3.140265 -10.568939 -0.788171 0.400850 1.507634 21.487106 7.437102 -22.153467 -3.079400 -7.125000 0.000000 0.000000 -13.327000 6.615800 12.041400 -0.309458 8.474167 1.271343 66.735170 9.149223 45.448053 -29.553269 34.291777 -12.233927 2.418501 2.033392 -22.943137 -30.295685 -17.638202 11.560600 7.125000 0.000000 0.000000 -5.343400 -51.308000 0.832300 
8.215667 17.248585 -35.718292 -6.545989 -10.957075 10.719176 -0.113536 -2.581561 -5.055582 -2.570694 -3.981031 -34.748651 -3.235624 5.804689 8.787127 -7.694875 22.931945 8.064472 0.317600 -3.622400 -10.016600 0.369817 -2.632963 4.045901 23.444095 3.175624 12.546899 3.475853 0.894659 2.509302 -0.857382 1.099671 11.839947 -0.741300 5.500100 -15.340600 3.889381 5.682581 -1.845275 0.743012 6.498781 -4.948914 4.209623 4.006100 6.611969 -10.469576 -5.829967 -17.943754 7.349113 -5.309726 6.500161 6.900900 -2.504100 10.794100 -1.062263 -5.527980 -0.849444 -86.413904 21.357934 2.385468 2.522334 -9.532371 -0.674670 0.543296 1.595447 26.785833 7.799184 -22.859930 -3.355600 -7.125000 0.000000 0.000000 -13.083200 5.770900 12.026500 -0.285465 8.465961 1.261837 66.646803 9.542073 45.431373 -29.734390 34.354476 -12.270325 2.367414 1.872148 -22.740618 -29.760833 -16.200361 10.400800 7.125000 0.000000 0.000000 -4.803600 -49.463300 0.529800 
